<svg width="383" height="294" viewBox="0 0 383 294" fill="none" xmlns="http://www.w3.org/2000/svg">
<path d="M88.1892 203.465L117.842 156.878L51.4331 114.69L17.1377 168.571L72.0665 203.465H88.1892Z" fill="#F0F0F0"/>
<path d="M130.21 217.998H56.7584V203.227H130.21V217.998ZM57.7123 217.045H129.257V204.18H57.7123V217.045Z" fill="#3F3D56"/>
<path d="M121.148 215.378C123.782 215.378 125.918 213.244 125.918 210.613C125.918 207.981 123.782 205.848 121.148 205.848C118.514 205.848 116.379 207.981 116.379 210.613C116.379 213.244 118.514 215.378 121.148 215.378Z" fill="#2C757D"/>
<path d="M107.793 215.378C110.427 215.378 112.563 213.244 112.563 210.613C112.563 207.981 110.427 205.848 107.793 205.848C105.159 205.848 103.024 207.981 103.024 210.613C103.024 213.244 105.159 215.378 107.793 215.378Z" fill="#2C757D"/>
<path d="M94.4384 215.378C97.0725 215.378 99.208 213.244 99.208 210.613C99.208 207.981 97.0725 205.848 94.4384 205.848C91.8042 205.848 89.6687 207.981 89.6687 210.613C89.6687 213.244 91.8042 215.378 94.4384 215.378Z" fill="#2C757D"/>
<path d="M81.0834 215.378C83.7176 215.378 85.8531 213.244 85.8531 210.613C85.8531 207.981 83.7176 205.848 81.0834 205.848C78.4492 205.848 76.3138 207.981 76.3138 210.613C76.3138 213.244 78.4492 215.378 81.0834 215.378Z" fill="#2C757D"/>
<path d="M67.7285 215.378C70.3627 215.378 72.4981 213.244 72.4981 210.613C72.4981 207.981 70.3627 205.848 67.7285 205.848C65.0943 205.848 62.9589 207.981 62.9589 210.613C62.9589 213.244 65.0943 215.378 67.7285 215.378Z" fill="#2C757D"/>
<path d="M217.494 53.8444V17.6305H235.619V0H146.904V88.6289H222.741V79.9634C222.741 78.3481 223.059 76.7486 223.678 75.2562C224.297 73.7638 225.204 72.4078 226.347 71.2656C227.491 70.1234 228.848 69.2174 230.342 68.5992C231.835 67.9811 233.437 67.6629 235.053 67.6629H235.619V53.8444H217.494Z" fill="#F0F0F0"/>
<path d="M315.748 228.72H256.605V241.109H315.748V228.72Z" fill="#2C757D"/>
<path d="M328.626 167.728H241.819V179.164H328.626V167.728Z" fill="#F0F0F0"/>
<path d="M371.076 293.047H0V294H371.076V293.047Z" fill="#3F3D56"/>
<path d="M343.501 294H235.053C231.663 293.996 228.412 292.649 226.014 290.253C223.617 287.858 222.268 284.61 222.264 281.223V79.9635C222.268 76.5759 223.617 73.3283 226.014 70.933C228.412 68.5376 231.663 67.1902 235.053 67.1864H343.501C346.891 67.1902 350.142 68.5376 352.54 70.933C354.938 73.3283 356.286 76.5759 356.29 79.9635V281.223C356.286 284.61 354.938 287.858 352.54 290.253C350.142 292.649 346.891 293.996 343.501 294ZM235.053 68.1394C231.916 68.1429 228.907 69.3898 226.688 71.6065C224.47 73.8232 223.221 76.8286 223.218 79.9635V281.223C223.221 284.358 224.47 287.363 226.688 289.58C228.907 291.797 231.916 293.043 235.053 293.047H343.501C346.639 293.043 349.647 291.797 351.866 289.58C354.085 287.363 355.333 284.358 355.336 281.223V79.9635C355.333 76.8286 354.085 73.8232 351.866 71.6065C349.647 69.3898 346.639 68.1429 343.501 68.1394H235.053Z" fill="#3F3D56"/>
<path d="M276.399 76.7164C275.833 76.7164 275.28 76.5487 274.809 76.2346C274.339 75.9204 273.972 75.4739 273.755 74.9515C273.539 74.4291 273.482 73.8542 273.592 73.2996C273.703 72.745 273.975 72.2356 274.376 71.8358C274.776 71.4359 275.286 71.1636 275.841 71.0533C276.396 70.943 276.971 70.9996 277.494 71.216C278.017 71.4324 278.464 71.7988 278.779 72.269C279.093 72.7392 279.261 73.2919 279.261 73.8574C279.26 74.6154 278.958 75.3421 278.422 75.8781C277.885 76.4141 277.158 76.7155 276.399 76.7164ZM276.399 71.9514C276.022 71.9514 275.653 72.0632 275.339 72.2726C275.025 72.482 274.781 72.7797 274.637 73.128C274.492 73.4763 274.454 73.8595 274.528 74.2292C274.602 74.599 274.783 74.9386 275.05 75.2051C275.317 75.4717 275.657 75.6532 276.027 75.7267C276.397 75.8003 276.781 75.7626 277.129 75.6183C277.478 75.474 277.776 75.2297 277.985 74.9163C278.195 74.6029 278.307 74.2344 278.307 73.8574C278.306 73.352 278.105 72.8676 277.748 72.5102C277.39 72.1529 276.905 71.9519 276.399 71.9514Z" fill="#3F3D56"/>
<path d="M304.54 73.3809H283.554V74.3339H304.54V73.3809Z" fill="#3F3D56"/>
<path d="M347.705 81.0049V119.125C337.585 119.124 327.88 115.108 320.724 107.959C313.569 100.81 309.548 91.1147 309.548 81.0049H347.705Z" fill="#2C757D"/>
<path d="M348.182 281.135H230.372V80.5284H348.182V281.135ZM231.326 280.182H347.228V81.4813H231.326V280.182Z" fill="#3F3D56"/>
<path opacity="0.1" d="M320.041 116.742C327.153 116.742 332.919 110.982 332.919 103.877C332.919 96.7714 327.153 91.0114 320.041 91.0114C312.929 91.0114 307.163 96.7714 307.163 103.877C307.163 110.982 312.929 116.742 320.041 116.742Z" fill="black"/>
<path d="M318.133 118.172C325.246 118.172 331.011 112.412 331.011 105.306C331.011 98.2009 325.246 92.4408 318.133 92.4408C311.021 92.4408 305.255 98.2009 305.255 105.306C305.255 112.412 311.021 118.172 318.133 118.172Z" fill="#2C757D"/>
<path d="M253.743 88.6289H235.619V95.2998H253.743V88.6289Z" fill="#3F3D56"/>
<path d="M263.76 152.003H245.635V158.674H263.76V152.003Z" fill="#3F3D56"/>
<path d="M333.396 176.781H245.635V164.392H333.396V176.781ZM246.589 175.828H332.442V165.345H246.589V175.828Z" fill="#3F3D56"/>
<path d="M328.626 203.942H241.819V215.378H328.626V203.942Z" fill="#F0F0F0"/>
<path d="M263.76 188.217H245.635V194.888H263.76V188.217Z" fill="#3F3D56"/>
<path d="M333.396 212.995H245.635V200.606H333.396V212.995ZM246.589 212.042H332.442V201.559H246.589V212.042Z" fill="#3F3D56"/>
<path d="M319.564 238.25H259.467V224.908H319.564V238.25ZM260.421 237.297H318.61V225.861H260.421V237.297Z" fill="#3F3D56"/>
<path d="M331.011 172.016C331.011 172.997 330.708 173.954 330.143 174.757C329.578 175.559 328.78 176.168 327.856 176.5C326.932 176.832 325.928 176.871 324.981 176.612C324.034 176.353 323.19 175.808 322.564 175.052L322.559 175.047C322.104 174.494 321.778 173.846 321.607 173.151C321.437 172.455 321.425 171.73 321.573 171.03C321.722 170.329 322.026 169.671 322.464 169.104C322.902 168.537 323.463 168.076 324.104 167.756C324.744 167.435 325.449 167.263 326.166 167.252C326.883 167.241 327.593 167.391 328.243 167.692C328.894 167.993 329.468 168.437 329.923 168.99C330.378 169.543 330.703 170.191 330.873 170.887C330.873 170.888 330.873 170.888 330.873 170.889C330.873 170.889 330.874 170.89 330.874 170.89C330.875 170.891 330.875 170.891 330.876 170.891C330.876 170.892 330.877 170.892 330.878 170.892C330.966 171.26 331.011 171.637 331.011 172.016Z" fill="#2C757D"/>
<path opacity="0.1" d="M331.011 172.016C331.011 172.997 330.708 173.954 330.143 174.757C329.578 175.559 328.78 176.168 327.856 176.5C326.932 176.832 325.928 176.871 324.981 176.612C324.034 176.353 323.19 175.808 322.564 175.052L322.559 175.047C322.471 174.678 322.427 174.301 322.426 173.922C322.426 172.941 322.729 171.984 323.294 171.182C323.859 170.379 324.658 169.77 325.582 169.438C326.505 169.106 327.509 169.067 328.457 169.327C329.404 169.586 330.247 170.131 330.873 170.887C330.873 170.888 330.873 170.888 330.873 170.889C330.873 170.889 330.874 170.89 330.874 170.89C330.875 170.891 330.875 170.891 330.876 170.891C330.876 170.892 330.877 170.892 330.878 170.892C330.966 171.26 331.011 171.637 331.011 172.016Z" fill="black"/>
<path d="M328.149 179.64C330.784 179.64 332.919 177.507 332.919 174.875C332.919 172.244 330.784 170.11 328.149 170.11C325.515 170.11 323.38 172.244 323.38 174.875C323.38 177.507 325.515 179.64 328.149 179.64Z" fill="#2C757D"/>
<path d="M331.011 208.23C331.011 209.211 330.708 210.168 330.143 210.971C329.578 211.773 328.78 212.382 327.856 212.714C326.932 213.046 325.928 213.085 324.981 212.826C324.034 212.567 323.19 212.022 322.564 211.265L322.559 211.261C322.104 210.708 321.778 210.06 321.607 209.365C321.437 208.669 321.425 207.944 321.573 207.244C321.722 206.543 322.026 205.885 322.464 205.318C322.902 204.751 323.463 204.29 324.104 203.97C324.744 203.649 325.449 203.477 326.166 203.466C326.883 203.455 327.593 203.605 328.243 203.906C328.894 204.207 329.468 204.65 329.923 205.204C330.378 205.757 330.703 206.405 330.873 207.101C330.873 207.101 330.873 207.102 330.873 207.103C330.873 207.103 330.874 207.104 330.874 207.104C330.875 207.105 330.875 207.105 330.876 207.105C330.876 207.106 330.877 207.106 330.878 207.106C330.966 207.474 331.011 207.851 331.011 208.23Z" fill="#2C757D"/>
<path opacity="0.1" d="M331.011 208.23C331.011 209.211 330.708 210.168 330.143 210.971C329.578 211.773 328.78 212.382 327.856 212.714C326.932 213.046 325.928 213.085 324.981 212.826C324.034 212.567 323.19 212.022 322.564 211.265L322.559 211.261C322.471 210.892 322.427 210.515 322.426 210.136C322.426 209.155 322.729 208.198 323.294 207.396C323.859 206.593 324.658 205.984 325.582 205.652C326.505 205.32 327.509 205.281 328.457 205.541C329.404 205.8 330.247 206.345 330.873 207.101C330.873 207.101 330.873 207.102 330.873 207.103C330.873 207.103 330.874 207.104 330.874 207.104C330.875 207.105 330.875 207.105 330.876 207.105C330.876 207.105 330.877 207.106 330.878 207.106C330.966 207.474 331.011 207.851 331.011 208.23Z" fill="black"/>
<path d="M328.149 215.854C330.784 215.854 332.919 213.721 332.919 211.089C332.919 208.458 330.784 206.324 328.149 206.324C325.515 206.324 323.38 208.458 323.38 211.089C323.38 213.721 325.515 215.854 328.149 215.854Z" fill="#2C757D"/>
<path d="M248.02 22.872H223.218V47.6499H248.02V22.872Z" fill="#F0F0F0"/>
<path d="M320.041 40.9789C318.909 40.9789 317.802 40.6436 316.861 40.0153C315.92 39.387 315.186 38.494 314.753 37.4491C314.32 36.4043 314.207 35.2546 314.428 34.1454C314.648 33.0362 315.193 32.0174 315.994 31.2177C316.794 30.418 317.814 29.8735 318.924 29.6528C320.035 29.4322 321.186 29.5454 322.231 29.9782C323.277 30.411 324.171 31.1439 324.8 32.0842C325.429 33.0245 325.765 34.13 325.765 35.2609C325.763 36.7769 325.159 38.2303 324.086 39.3023C323.013 40.3743 321.559 40.9772 320.041 40.9789ZM320.041 30.496C319.098 30.496 318.176 30.7754 317.391 31.299C316.607 31.8226 315.996 32.5668 315.635 33.4375C315.274 34.3082 315.179 35.2662 315.363 36.1905C315.547 37.1149 316.001 37.9639 316.668 38.6303C317.335 39.2967 318.185 39.7505 319.111 39.9344C320.036 40.1182 320.995 40.0239 321.866 39.6632C322.738 39.3026 323.483 38.6918 324.007 37.9082C324.531 37.1246 324.811 36.2034 324.811 35.2609C324.809 33.9976 324.306 32.7865 323.412 31.8932C322.518 30.9999 321.306 30.4974 320.041 30.496Z" fill="#3F3D56"/>
<path d="M194.123 120.554H181.722V108.165H194.123V120.554ZM182.676 119.601H193.169V109.118H182.676V119.601Z" fill="#3F3D56"/>
<path d="M383 212.995H370.599V200.606H383V212.995ZM371.553 212.042H382.046V201.559H371.553V212.042Z" fill="#3F3D56"/>
<path d="M138.32 129.925L140.448 131.07L147.689 134.969L159.38 141.262L166.193 128.634C166.834 127.447 167.235 126.146 167.373 124.805C167.511 123.463 167.382 122.108 166.995 120.816C166.607 119.524 165.969 118.321 165.116 117.276C164.262 116.231 163.211 115.364 162.022 114.725C159.481 113.355 156.571 112.825 153.709 113.213C150.848 113.601 148.184 114.886 146.101 116.884L146.097 116.887C145.072 117.871 144.207 119.008 143.533 120.258L138.32 129.925Z" fill="#2F2E41"/>
<path d="M170.228 258.709L168.8 274.404L163.443 275.118L159.873 257.282L170.228 258.709Z" fill="#FFB8B8"/>
<path d="M162.015 275.118C162.015 275.118 168.799 271.551 170.228 274.405C170.228 274.405 169.156 282.966 173.441 284.036C177.726 285.106 179.511 292.597 173.441 293.311C167.371 294.024 163.443 291.884 161.301 291.884C159.158 291.884 161.301 284.393 161.301 284.393L162.015 275.118Z" fill="#2F2E41"/>
<path d="M127.022 258.709L128.451 274.404L133.807 275.118L137.377 257.282L127.022 258.709Z" fill="#FFB8B8"/>
<path d="M135.235 275.118C135.235 275.118 128.451 271.551 127.022 274.405C127.022 274.405 128.094 282.966 123.809 284.036C119.524 285.106 117.739 292.597 123.809 293.311C129.879 294.024 133.807 291.884 135.949 291.884C138.092 291.884 135.949 284.393 135.949 284.393L135.235 275.118Z" fill="#2F2E41"/>
<path d="M156.302 132.786C161.429 132.786 165.586 128.634 165.586 123.512C165.586 118.389 161.429 114.237 156.302 114.237C151.175 114.237 147.018 118.389 147.018 123.512C147.018 128.634 151.175 132.786 156.302 132.786Z" fill="#FFB8B8"/>
<path d="M126.665 141.704L134.164 153.476L143.09 152.763L157.73 153.833C157.73 153.833 159.112 151.072 160.24 148.386C160.858 147.044 161.333 145.642 161.658 144.201C162.015 141.704 157.016 139.207 157.016 139.207C157.016 139.207 156.82 139.172 156.491 139.093C156.056 138.99 155.384 138.818 154.649 138.569C152.988 138.005 150.992 137.049 150.589 135.64C149.875 133.143 155.231 129.576 155.231 129.576L148.804 123.512C148.804 123.512 143.094 131.434 136.16 133.239C135.758 133.345 135.35 133.429 134.939 133.489C134.917 133.493 134.899 133.496 134.878 133.5C127.38 134.57 126.665 141.704 126.665 141.704Z" fill="#FFB8B8"/>
<path d="M130.593 138.494L126.665 141.704C126.665 141.704 123.452 157.043 124.523 161.324C125.594 165.605 124.166 169.529 124.166 170.242C124.166 170.955 120.952 197.71 120.952 197.71C120.952 197.71 114.525 211.978 121.309 210.551C128.094 209.125 125.594 194.856 125.594 194.856L133.807 169.885V148.839L130.593 138.494Z" fill="#FFB8B8"/>
<path d="M158.801 141.348L161.658 143.488L163.086 173.452L173.798 199.136C173.798 199.136 181.654 211.622 176.655 211.978C171.656 212.335 168.442 199.136 168.442 199.136L158.801 174.523L157.373 150.622L158.801 141.348Z" fill="#FFB8B8"/>
<path d="M140.948 143.488C140.948 143.488 148.089 148.482 159.516 146.698C159.516 146.698 162.729 153.119 160.944 156.687C159.158 160.254 163.086 168.815 163.8 169.885C164.514 170.955 172.727 193.072 175.584 216.972C178.44 240.873 186.296 257.282 179.511 259.422C172.727 261.563 158.801 264.06 157.373 261.919C155.945 259.779 153.802 206.628 153.802 206.628L149.875 226.961C149.875 226.961 155.231 261.563 151.303 262.276C147.375 262.989 122.738 260.849 123.452 256.568C124.166 252.288 131.307 229.814 131.307 229.814C131.307 229.814 130.95 184.868 138.092 176.306C138.092 176.306 140.948 171.669 137.02 165.605C133.093 159.54 133.45 149.909 133.45 149.909C133.45 149.909 136.306 149.909 140.948 143.488Z" fill="#2F2E41"/>
<path d="M134.939 133.489L140.948 146.698L142.376 145.985L136.16 133.239L134.939 133.489Z" fill="#2F2E41"/>
<path d="M154.649 138.569L159.159 148.482L160.24 148.386L159.873 146.698L156.491 139.093C156.056 138.99 155.384 138.818 154.649 138.569Z" fill="#2F2E41"/>
<path d="M140.448 131.07C140.792 132.174 141.453 133.152 142.35 133.881C143.247 134.611 144.34 135.06 145.491 135.172C146.643 135.284 147.801 135.054 148.823 134.511C149.844 133.968 150.682 133.136 151.232 132.119C146.715 126.219 150.589 122.513 157.927 119.709C158.479 118.684 158.714 117.518 158.602 116.359C158.489 115.201 158.034 114.102 157.295 113.202C155.272 112.944 153.217 113.14 151.281 113.777C149.344 114.414 147.574 115.476 146.101 116.884L146.097 116.887L140.884 126.547C140.513 127.234 140.283 127.988 140.208 128.765C140.133 129.542 140.215 130.326 140.448 131.07Z" fill="#2F2E41"/>
<path d="M150.767 126.722C151.458 126.722 152.017 125.764 152.017 124.582C152.017 123.4 151.458 122.441 150.767 122.441C150.077 122.441 149.518 123.4 149.518 124.582C149.518 125.764 150.077 126.722 150.767 126.722Z" fill="#FFB8B8"/>
<path d="M154.492 121.089L165.225 125.948L167.193 121.61C166.854 120.025 166.144 118.542 165.122 117.283L157.734 113.941L154.492 121.089Z" fill="#2F2E41"/>
<path d="M180.291 216.807C182.926 216.807 185.061 214.674 185.061 212.042C185.061 209.411 182.926 207.277 180.291 207.277C177.657 207.277 175.522 209.411 175.522 212.042C175.522 214.674 177.657 216.807 180.291 216.807Z" fill="#2C757D"/>
<path d="M27.1661 245.133C28.8876 245.133 30.2832 243.739 30.2832 242.019C30.2832 240.299 28.8876 238.905 27.1661 238.905C25.4445 238.905 24.0489 240.299 24.0489 242.019C24.0489 243.739 25.4445 245.133 27.1661 245.133Z" fill="#FF6584"/>
<path d="M42.9146 258.25H41.9607V293.706H42.9146V258.25Z" fill="#3F3D56"/>
<path d="M42.4378 263.264C45.2097 263.264 47.4568 261.019 47.4568 258.249C47.4568 255.48 45.2097 253.235 42.4378 253.235C39.6659 253.235 37.4188 255.48 37.4188 258.249C37.4188 261.019 39.6659 263.264 42.4378 263.264Z" fill="#3F3D56"/>
<path d="M42.4378 280.102C42.4378 280.102 41.7208 264.696 27.0223 266.487L42.4378 280.102Z" fill="#3F3D56"/>
</svg>
